<svg width="50" height="50" viewBox="0 0 50 50" fill="none" xmlns="http://www.w3.org/2000/svg">
<g clip-path="url(#clip0)">
<path d="M47.0397 0H2.96019C1.74037 0 0.747986 0.992383 0.747986 2.21211V30.1297C0.747986 31.2107 1.5639 32.1049 2.61224 32.2286V48.4783C2.61224 49.3174 3.29476 49.9999 4.13383 49.9999H11.2858C12.1248 49.9999 12.8075 49.3174 12.8075 48.4783V32.2433H14.1389V48.4784C14.1389 49.3175 14.8214 50 15.6605 50H22.8125C23.6516 50 24.3341 49.3175 24.3341 48.4784V32.2433H25.6657V33.9527C25.6657 34.6286 26.2155 35.1784 26.8913 35.1784H28.2455L29.0166 36.4032C29.2413 36.7604 29.7223 36.8549 30.0652 36.6068L32.0435 35.1784H34.6353C35.3112 35.1784 35.861 34.6286 35.861 33.9527V32.2433H37.1924V39.5301C37.1924 40.3691 37.875 41.0518 38.7141 41.0518H42.987C43.6083 41.0518 44.114 40.5461 44.114 39.9247V36.8911L44.5553 37.1214C44.9097 37.3064 45.347 37.1729 45.5378 36.8217L47.299 33.5794C47.3573 33.4721 47.3877 33.3519 47.3877 33.2298V32.2287C48.436 32.1049 49.252 31.2108 49.252 30.1298V2.21211C49.2519 0.992383 48.2595 0 47.0397 0V0ZM47.787 30.1297C47.787 30.4874 47.4961 30.7784 47.1383 30.7784C46.8552 30.7784 46.6061 30.7784 46.323 30.7784C45.9184 30.7784 45.5906 31.1062 45.5906 31.5108C45.5906 31.7676 45.7228 31.9931 45.9227 32.1238V33.0437L44.5942 35.4895L43.7203 35.0334C43.2334 34.7792 42.649 35.1334 42.649 35.6827V39.5869H38.7139C38.6826 39.5869 38.6571 39.5614 38.6571 39.5301V32.2433H39.0963C39.5009 32.2433 39.8287 31.9154 39.8287 31.5108C39.8287 31.1062 39.5009 30.7784 39.0963 30.7784C37.8191 30.7784 36.0941 30.7784 34.7964 30.7784C34.3918 30.7784 34.064 31.1062 34.064 31.5108C34.064 31.7675 34.1962 31.993 34.3959 32.1237V33.7136H31.8065C31.6526 33.7136 31.5026 33.7621 31.3777 33.8522L29.8402 34.9623L29.2695 34.0559C29.1354 33.8428 28.9013 33.7136 28.6496 33.7136H27.1302V32.2433H27.5697C27.9743 32.2433 28.3021 31.9154 28.3021 31.5108C28.3021 31.1062 27.9743 30.7784 27.5697 30.7784C25.5522 30.7784 24.6453 30.7784 23.2695 30.7784C22.8649 30.7784 22.537 31.1062 22.537 31.5108C22.537 31.7675 22.6693 31.993 22.869 32.1237V48.4784C22.869 48.5097 22.8435 48.5352 22.8122 48.5352H15.6602C15.6289 48.5352 15.6035 48.5097 15.6035 48.4784V32.2433H16.0429C16.4475 32.2433 16.7753 31.9154 16.7753 31.5108C16.7753 31.1062 16.4475 30.7784 16.0429 30.7784C14.0208 30.7784 13.1302 30.7784 11.7428 30.7784C11.3382 30.7784 11.0104 31.1062 11.0104 31.5108C11.0104 31.7675 11.1426 31.993 11.3423 32.1237V48.4784C11.3423 48.5097 11.3168 48.5352 11.2855 48.5352H4.13383C4.10258 48.5352 4.07709 48.5097 4.07709 48.4784V32.2433H4.51654C4.92113 32.2433 5.24896 31.9154 5.24896 31.5108C5.24896 31.1062 4.92113 30.7784 4.51654 30.7784C3.26937 30.7784 3.54301 30.7784 2.86156 30.7784C2.50385 30.7784 2.21283 30.4875 2.21283 30.1297V2.21211C2.21283 1.8 2.54818 1.46484 2.96019 1.46484H47.0396C47.4517 1.46484 47.7869 1.8001 47.7869 2.21211V30.1297H47.787Z" fill="white"/>
<path d="M8.71582 30.7784H7.54395C7.13936 30.7784 6.81152 31.1062 6.81152 31.5108C6.81152 31.9154 7.13936 32.2432 7.54395 32.2432H8.71582C9.12041 32.2432 9.44824 31.9154 9.44824 31.5108C9.44824 31.1062 9.12041 30.7784 8.71582 30.7784Z" fill="white"/>
<path d="M20.2424 30.7784H19.0705C18.6659 30.7784 18.3381 31.1062 18.3381 31.5108C18.3381 31.9154 18.6659 32.2432 19.0705 32.2432H20.2424C20.647 32.2432 20.9748 31.9154 20.9748 31.5108C20.9748 31.1062 20.647 30.7784 20.2424 30.7784Z" fill="white"/>
<path d="M31.7692 30.7784H30.5973C30.1927 30.7784 29.8649 31.1062 29.8649 31.5108C29.8649 31.9154 30.1927 32.2432 30.5973 32.2432H31.7692C32.1738 32.2432 32.5016 31.9154 32.5016 31.5108C32.5016 31.1062 32.1738 30.7784 31.7692 30.7784Z" fill="white"/>
<path d="M43.2958 30.7784H42.1239C41.7193 30.7784 41.3915 31.1062 41.3915 31.5108C41.3915 31.9154 41.7193 32.2432 42.1239 32.2432H43.2958C43.7004 32.2432 44.0282 31.9154 44.0282 31.5108C44.0282 31.1062 43.7003 30.7784 43.2958 30.7784Z" fill="white"/>
<path d="M43.0963 3.82245H6.90352C6.07549 3.82245 5.40186 4.49608 5.40186 5.32421V15.089C5.40186 15.9171 6.07549 16.5907 6.90352 16.5907H43.0962C43.9242 16.5907 44.5979 15.9171 44.5979 15.089V5.32421C44.5979 4.49608 43.9242 3.82245 43.0963 3.82245V3.82245ZM43.1331 15.089C43.1331 15.1094 43.1166 15.1259 43.0963 15.1259H6.90352C6.8832 15.1259 6.8667 15.1094 6.8667 15.089V5.32421C6.8667 5.30389 6.8832 5.28729 6.90352 5.28729H43.0962C43.1165 5.28729 43.133 5.30389 43.133 5.32421V15.089H43.1331Z" fill="white"/>
<path d="M7.24323 20.7535H42.7567C43.1613 20.7535 43.4891 20.4257 43.4891 20.0211C43.4891 19.6165 43.1613 19.2887 42.7567 19.2887H7.24323C6.83864 19.2887 6.5108 19.6165 6.5108 20.0211C6.5108 20.4257 6.83864 20.7535 7.24323 20.7535V20.7535Z" fill="white"/>
<path d="M43.4891 23.6563C43.4891 23.2517 43.1613 22.9239 42.7567 22.9239H7.24323C6.83864 22.9239 6.5108 23.2517 6.5108 23.6563C6.5108 24.0609 6.83864 24.3887 7.24323 24.3887H42.7567C43.1613 24.3887 43.4891 24.0609 43.4891 23.6563Z" fill="white"/>
<path d="M37.7667 26.5591H12.2329C11.8283 26.5591 11.5005 26.8869 11.5005 27.2915C11.5005 27.6961 11.8283 28.024 12.2329 28.024H37.7668C38.1714 28.024 38.4992 27.6961 38.4992 27.2915C38.4992 26.8869 38.1713 26.5591 37.7667 26.5591Z" fill="white"/>
<path d="M19.2366 34.4598C18.832 34.4598 18.5042 34.7877 18.5042 35.1923V46.0122C18.5042 46.4168 18.832 46.7446 19.2366 46.7446C19.6412 46.7446 19.969 46.4168 19.969 46.0122V35.1923C19.969 34.7878 19.6412 34.4598 19.2366 34.4598Z" fill="white"/>
<path d="M7.70984 34.4598C7.30525 34.4598 6.97742 34.7877 6.97742 35.1923V46.0122C6.97742 46.4168 7.30525 46.7446 7.70984 46.7446C8.11443 46.7446 8.44226 46.4168 8.44226 46.0122V35.1923C8.44226 34.7878 8.11443 34.4598 7.70984 34.4598Z" fill="white"/>
<path d="M32.0136 10.5139C31.5676 10.3492 31.1493 10.1711 30.9763 10.096C30.9729 10.0884 30.9712 10.0777 30.9736 10.0623C30.9817 10.0058 31.0386 9.95761 31.13 9.93007C31.5695 9.79794 32.0006 10.128 32.02 10.1433C32.3296 10.398 32.7876 10.3569 33.0463 10.0491C33.3065 9.73944 33.2666 9.27753 32.9569 9.01718C32.5772 8.69803 31.6764 8.23583 30.7075 8.52753C30.067 8.7205 29.6134 9.2288 29.5237 9.85419C29.4155 10.6073 29.8793 11.2114 30.296 11.3973C30.3195 11.4076 30.8782 11.6563 31.5068 11.8883C31.7586 11.9811 31.8964 12.1073 31.8842 12.1757C31.8683 12.2651 31.7087 12.4405 31.4122 12.4405C30.9173 12.4405 30.6335 12.1699 30.5584 12.0871C30.2868 11.7874 29.8236 11.7647 29.5239 12.0363C29.2242 12.3079 29.2014 12.7711 29.4731 13.0709C29.9538 13.6013 30.6605 13.9054 31.4121 13.9054C32.3689 13.9054 33.1739 13.2862 33.3262 12.4332C33.4372 11.812 33.16 10.9366 32.0136 10.5139V10.5139Z" fill="white"/>
<path d="M20.9948 8.39035C20.6725 8.39035 20.3993 8.59885 20.3015 8.8882C19.9652 8.72346 19.5874 8.63058 19.1884 8.63058C17.7885 8.63058 16.6495 9.76945 16.6495 11.1693C16.6495 12.5692 17.7885 13.7082 19.1884 13.7082C19.5874 13.7082 19.9652 13.6153 20.3015 13.4506C20.3993 13.7399 20.6725 13.9484 20.9948 13.9484C21.3994 13.9484 21.7273 13.6206 21.7273 13.216V9.12277C21.7273 8.71818 21.3994 8.39035 20.9948 8.39035ZM19.1884 12.2434C18.5962 12.2434 18.1144 11.7615 18.1144 11.1693C18.1144 10.5773 18.5962 10.0954 19.1884 10.0954C19.7806 10.0954 20.2624 10.5773 20.2624 11.1693C20.2624 11.7615 19.7807 12.2434 19.1884 12.2434Z" fill="white"/>
<path d="M27.5234 6.46475C27.1189 6.46475 26.791 6.79258 26.791 7.19718V8.7672C26.407 8.56329 25.9695 8.44718 25.5053 8.44718C23.9886 8.44718 22.7547 9.68107 22.7547 11.1978C22.7547 12.7145 23.9886 13.9485 25.5053 13.9485C26.0082 13.9485 26.4796 13.8121 26.8857 13.5755C27.0113 13.7981 27.2496 13.9485 27.5234 13.9485C27.928 13.9485 28.2559 13.6206 28.2559 13.216V7.19718C28.2559 6.79268 27.9279 6.46475 27.5234 6.46475V6.46475ZM25.5053 12.4836C24.7963 12.4836 24.2195 11.9069 24.2195 11.1978C24.2195 10.4888 24.7963 9.91202 25.5053 9.91202C26.2143 9.91202 26.791 10.4888 26.791 11.1978C26.791 11.9069 26.2143 12.4836 25.5053 12.4836Z" fill="white"/>
</g>
<defs>
<clipPath id="clip0">
<rect width="50" height="50" fill="white"/>
</clipPath>
</defs>
</svg>
