<svg width="50" height="50" viewBox="0 0 50 50" fill="none" xmlns="http://www.w3.org/2000/svg">
<g clip-path="url(#clip0)">
<path d="M43.4529 32.971H21.5829C21.1782 32.971 20.8502 33.299 20.8502 33.7037C20.8502 34.1084 21.1782 34.4364 21.5829 34.4364H43.4529C43.8576 34.4364 44.1856 34.1084 44.1856 33.7037C44.1856 33.299 43.8576 32.971 43.4529 32.971Z" fill="white"/>
<path d="M43.4529 36.9764H21.5829C21.1782 36.9764 20.8502 37.3044 20.8502 37.7091C20.8502 38.1138 21.1782 38.4418 21.5829 38.4418H43.4529C43.8576 38.4418 44.1856 38.1138 44.1856 37.7091C44.1856 37.3044 43.8576 36.9764 43.4529 36.9764Z" fill="white"/>
<path d="M37.6648 40.9818H21.5829C21.1782 40.9818 20.8502 41.3098 20.8502 41.7145C20.8502 42.1192 21.1782 42.4472 21.5829 42.4472H37.6648C38.0694 42.4472 38.3975 42.1192 38.3975 41.7145C38.3975 41.3098 38.0694 40.9818 37.6648 40.9818Z" fill="white"/>
<path d="M48.0448 11.9788L42.0453 5.9793C41.9078 5.84189 41.7214 5.76465 41.5271 5.76465H33.2418V2.57324C33.2418 1.1543 32.0874 0 30.6684 0H4.31412C2.89518 0 1.74078 1.15439 1.74078 2.57324V41.6621C1.74078 43.0811 2.89518 44.2354 4.31412 44.2354H14.0586C14.4632 44.2354 14.7913 43.9073 14.7913 43.5026C14.7913 43.098 14.4632 42.7699 14.0586 42.7699H4.31412C3.70319 42.7699 3.20621 42.2729 3.20621 41.662V2.57324C3.20621 1.9623 3.70328 1.46533 4.31412 1.46533H28.5555L18.9856 5.13877C17.8031 5.59268 16.9549 6.67969 16.791 7.93086C16.7421 8.2375 16.7641 8.41709 16.7585 8.76436H6.25055C5.53737 8.76436 4.95699 9.34463 4.95699 10.0579V16.6214C4.95699 17.3346 5.53727 17.9149 6.25055 17.9149H16.7586V19.8825H6.25055C5.53737 19.8825 4.95699 20.4628 4.95699 21.1761V27.7396C4.95699 28.4527 5.53727 29.0331 6.25055 29.0331H16.7586V31.2453H5.68971C5.28502 31.2453 4.95699 31.5733 4.95699 31.978C4.95699 32.3827 5.28502 32.7107 5.68971 32.7107H16.7586V34.9739H5.68971C5.28502 34.9739 4.95699 35.302 4.95699 35.7066C4.95699 36.1113 5.28502 36.4394 5.68971 36.4394H16.7586V47.427C16.7586 48.8459 17.913 50.0003 19.3318 50.0003H45.686C47.1049 50.0003 48.2592 48.8459 48.2592 47.427V12.4969C48.2593 12.3025 48.1822 12.1162 48.0448 11.9788V11.9788ZM42.2597 8.26621L45.7578 11.7643H43.3676C42.7568 11.7643 42.2597 11.2672 42.2597 10.6563V8.26621ZM21.4445 5.76465L31.5386 1.88994C31.687 2.07842 31.7763 2.31543 31.7763 2.57334V5.76465H21.4445ZM6.42233 16.4495V10.2298H16.7585V16.4495H6.42233ZM6.42233 27.5676V21.3479H16.7585V27.5676H6.42233ZM45.686 48.5347H19.3318C18.7209 48.5347 18.2239 48.0376 18.2239 47.4268V8.33789C18.2239 7.73301 18.7157 7.22998 19.3318 7.22998H40.7944V10.6563C40.7944 12.0752 41.9488 13.2296 43.3676 13.2296H46.7939V47.4267C46.7939 48.0376 46.2969 48.5347 45.686 48.5347V48.5347Z" fill="white"/>
<path d="M42.6237 15.5109H28.1479C27.7432 15.5109 27.4151 15.839 27.4151 16.2436C27.4151 16.6483 27.7432 16.9764 28.1479 16.9764H42.6238C42.7337 16.9764 42.8233 17.0658 42.8233 17.1757V27.0808L39.1024 22.5975C38.2781 21.6045 36.7562 21.6064 35.9336 22.5975L34.336 24.5223L30.9237 20.4108C30.0994 19.4179 28.5775 19.4199 27.755 20.4108L22.1949 27.1102V17.1756C22.1949 17.0657 22.2844 16.9763 22.3942 16.9763H24.7226C25.1273 16.9763 25.4553 16.6482 25.4553 16.2435C25.4553 15.8389 25.1273 15.5108 24.7226 15.5108H22.3942C21.4764 15.5108 20.7295 16.2576 20.7295 17.1756V27.6726C20.7295 28.5905 21.4763 29.3373 22.3942 29.3373H42.6238C43.5418 29.3373 44.2886 28.5905 44.2886 27.6726V17.1757C44.2886 16.2577 43.5417 15.5109 42.6237 15.5109V15.5109ZM37.0611 23.5334C37.2985 23.2472 37.737 23.2471 37.9746 23.5334L41.5755 27.8721H33.4604L37.0611 23.5334ZM28.8825 21.3468C29.1199 21.0605 29.5584 21.0604 29.796 21.3468L33.3838 25.6696L31.5559 27.8721H23.4669L28.8825 21.3468Z" fill="white"/>
</g>
<defs>
<clipPath id="clip0">
<rect width="50" height="50" fill="white"/>
</clipPath>
</defs>
</svg>
