<svg width="50" height="50" viewBox="0 0 50 50" fill="none" xmlns="http://www.w3.org/2000/svg">
<g clip-path="url(#clip0)">
<path d="M9.99998 10.8333C6.38331 10.8333 3.33331 13.125 3.33331 15.8333C3.33331 18.5417 6.38331 20.8333 9.99998 20.8333C13.6166 20.8333 16.6666 18.5417 16.6666 15.8333C16.6666 13.125 13.6166 10.8333 9.99998 10.8333ZM9.99998 19.1667C7.33331 19.1667 4.99998 17.6083 4.99998 15.8333C4.99998 14.0583 7.33331 12.5 9.99998 12.5C12.6666 12.5 15 14.0583 15 15.8333C15 17.6083 12.6666 19.1667 9.99998 19.1667Z" fill="white"/>
<path d="M22.5 25.8333C22.9603 25.8333 23.3334 25.4602 23.3334 25C23.3334 24.5397 22.9603 24.1667 22.5 24.1667C22.0398 24.1667 21.6667 24.5397 21.6667 25C21.6667 25.4602 22.0398 25.8333 22.5 25.8333Z" fill="white"/>
<path d="M0 34.1667C0 38.7583 4.48333 42.5 10 42.5C17.35 42.5 22.1167 36.125 19.075 30.6667L22.4083 28.925L29.9083 33.025C26.35 36.0583 23.8 40 23.375 48.1167C23.3382 48.7295 23.6413 49.313 24.1639 49.6353C24.6865 49.9576 25.3439 49.9664 25.875 49.6583L28.3333 48.225L30.8333 49.75C31.3298 50.0387 31.9398 50.0515 32.4479 49.7839C32.9561 49.5163 33.2906 49.006 33.3333 48.4333C33.3866 46.4224 33.831 44.441 34.6417 42.6C35.5333 40.9333 37.875 39.4333 39.9 37.9583C42.1333 38.7167 45.6833 39.6917 47.875 38.85C49.2083 38.3333 49.4667 37.5 49.875 36.5917C50.0537 36.1926 49.8937 35.7233 49.5083 35.5167L45.1667 33.1833C47.3917 30.5583 48.45 27.8 48.3333 25C48.3704 22.0487 47.3102 19.1889 45.3583 16.975L49.5917 14.4333C49.9526 14.2139 50.0922 13.7592 49.9167 13.375L49.575 12.625C48.5917 10.3917 45.4083 10.2 39.9667 12.025C37.875 10.5083 35.575 8.99999 34.6833 7.36666C33.8728 5.52553 33.4285 3.54424 33.375 1.53332C33.3316 0.952004 32.9877 0.435588 32.468 0.171491C31.9484 -0.0926063 31.3285 -0.0659998 30.8333 0.241654L28.3333 1.78332L25.9 0.341654C25.3716 0.0355534 24.718 0.0429761 24.1967 0.361C23.6753 0.679025 23.3697 1.25672 23.4 1.86665C23.825 9.94166 26.375 13.9417 29.925 16.9667L22.425 21.075L19.0917 19.3417C22.1417 13.8333 17.2917 7.49999 10 7.49999C4.48333 7.49999 0 11.2417 0 15.8333C0 21.6083 6.825 25.475 13.0333 23.7667L15.2833 25L13.0333 26.2333C6.78334 24.5167 0 28.4167 0 34.1667H0ZM36.1833 21.825C38.2333 23.65 38.3333 24.45 38.3333 24.6833V25.3417C38.3333 25.5833 38.2167 26.375 36.0667 28.2667L30 25L36.1833 21.825ZM33.225 41.825C32.1 43.9 31.8 47.0833 31.725 48.35L29.225 46.825C28.6968 46.5076 28.0366 46.5076 27.5083 46.825L25.0833 48.25C25.1627 44.9232 25.9556 41.6522 27.4083 38.6583C28.4514 36.8245 29.8478 35.2157 31.5167 33.925C36.8083 36.8333 36.1 36.5 38.1083 37.3C36.3667 38.5 34.2417 40 33.225 41.8V41.825ZM47.325 37.3167C45.0417 38.15 40.025 36.2333 39.9417 36.2167C36.8833 35.1167 37.65 35.3833 24.225 28.0333L28.2167 25.9667L48.0667 36.6667C47.9152 36.9675 47.6472 37.1934 47.325 37.2917V37.3167ZM48.1 13.4417L44.2583 15.75C43.421 14.8893 42.5303 14.0822 41.5917 13.3333C43.3333 12.7667 47.35 11.7417 48.1 13.4167V13.4417ZM27.375 11.3833C25.9227 8.38336 25.1299 5.10706 25.05 1.77499L27.5 3.22499C28.0157 3.52271 28.651 3.52271 29.1667 3.22499L31.6667 1.68332C31.75 2.95832 32.05 6.14165 33.175 8.21665C34.1083 9.88332 35.9 11.2167 37.8083 12.5917C42.25 15.7583 46.8833 19.5333 46.6667 25C46.7667 27.5 45.8333 29.9333 43.7083 32.3417L37.625 29.075C40.275 26.6667 40 25.6833 40 24.775C40.15 22.5 36.1833 19.6083 34.3 18.2417C31.5417 16.2333 29.0333 14.4417 27.375 11.3833V11.3833ZM13.8417 22.3083C13.4618 22.1018 13.0166 22.051 12.6 22.1667C7.425 23.5667 1.66667 20.4833 1.66667 15.8333C1.66667 12.1583 5.40833 9.16666 10 9.16666C14.5917 9.16666 18.3333 12.1583 18.3333 15.8333C18.3333 18.1833 17.0917 18.5417 17.5 19.8167C17.6268 20.2554 17.928 20.6229 18.3333 20.8333L20.7 22.0583L17.0417 24.0667L13.8417 22.3083ZM31.3417 18.1C32.7167 19.15 33.6083 19.7667 34.8083 20.675L18.3333 29.1667C17.9298 29.3752 17.6288 29.7394 17.5 30.175C17.125 31.45 18.3333 31.7917 18.3333 34.15C18.3333 37.825 14.5917 40.8167 10 40.8167C5.40833 40.8167 1.66667 37.8417 1.66667 34.1667C1.66667 29.45 7.5 26.4417 12.5917 27.8333C13.0072 27.9515 13.4524 27.9037 13.8333 27.7C46.3333 9.89999 21.6667 23.4 31.3167 18.1H31.3417Z" fill="white"/>
<path d="M3.33331 34.1667C3.33331 36.875 6.38331 39.1667 9.99998 39.1667C13.6166 39.1667 16.6666 36.875 16.6666 34.1667C16.6666 32.125 15 30.5334 13.15 29.7667C8.52498 27.8917 3.33331 30.625 3.33331 34.1667V34.1667ZM14.25 32.5C16.4333 34.8 13.5166 37.5 9.99998 37.5C7.33331 37.5 4.99998 35.9417 4.99998 34.1667C4.99998 32.3917 7.33331 30.8334 9.99998 30.8334C11.5842 30.7885 13.1186 31.3902 14.25 32.5Z" fill="white"/>
</g>
<defs>
<clipPath id="clip0">
<rect width="50" height="50" fill="white"/>
</clipPath>
</defs>
</svg>
