<svg width="50" height="50" viewBox="0 0 50 50" fill="none" xmlns="http://www.w3.org/2000/svg">
<path d="M46.0938 15.625H42.9688V7.8125C42.9688 6.95098 42.2678 6.25 41.4062 6.25H38.2812V2.34375C38.2812 1.05146 37.2298 0 35.9375 0H14.0625C12.7702 0 11.7188 1.05146 11.7188 2.34375V6.25H8.59375C7.73223 6.25 7.03125 6.95098 7.03125 7.8125V15.625H3.90625C1.75234 15.625 0 17.3773 0 19.5312V36.7188C0 38.8727 1.75234 40.625 3.90625 40.625H11.7188V47.6562C11.7188 48.9485 12.7702 50 14.0625 50H35.9375C37.2298 50 38.2812 48.9485 38.2812 47.6562V40.625H46.0938C48.2477 40.625 50 38.8727 50 36.7188V19.5312C50 17.3773 48.2477 15.625 46.0938 15.625ZM41.4062 7.8125V15.625H38.2812V7.8125H41.4062ZM13.2812 2.34375C13.2812 1.91299 13.6317 1.5625 14.0625 1.5625H35.9375C36.3683 1.5625 36.7188 1.91299 36.7188 2.34375V15.625H13.2812C13.2812 15.4653 13.2812 2.90908 13.2812 2.34375ZM8.59375 7.8125H11.7188V15.625H8.59375V7.8125ZM36.7188 47.6562C36.7188 48.087 36.3683 48.4375 35.9375 48.4375H14.0625C13.6317 48.4375 13.2812 48.087 13.2812 47.6562V34.375H36.7188V47.6562ZM48.4375 36.7188C48.4375 38.011 47.386 39.0625 46.0938 39.0625H38.2812V34.375H39.8438C40.2752 34.375 40.625 34.0252 40.625 33.5938C40.625 33.1623 40.2752 32.8125 39.8438 32.8125C37.0452 32.8125 11.4372 32.8125 10.1562 32.8125C9.7248 32.8125 9.375 33.1623 9.375 33.5938C9.375 34.0252 9.7248 34.375 10.1562 34.375H11.7188V39.0625H3.90625C2.61396 39.0625 1.5625 38.011 1.5625 36.7188V19.5312C1.5625 18.239 2.61396 17.1875 3.90625 17.1875H46.0938C47.386 17.1875 48.4375 18.239 48.4375 19.5312V36.7188Z" fill="white"/>
<path d="M44.5312 18.75C43.239 18.75 42.1875 19.8015 42.1875 21.0938C42.1875 22.386 43.239 23.4375 44.5312 23.4375C45.8235 23.4375 46.875 22.386 46.875 21.0938C46.875 19.8015 45.8235 18.75 44.5312 18.75ZM44.5312 21.875C44.1005 21.875 43.75 21.5245 43.75 21.0938C43.75 20.663 44.1005 20.3125 44.5312 20.3125C44.962 20.3125 45.3125 20.663 45.3125 21.0938C45.3125 21.5245 44.962 21.875 44.5312 21.875Z" fill="white"/>
<path d="M38.2812 18.75C36.989 18.75 35.9375 19.8015 35.9375 21.0938C35.9375 22.386 36.989 23.4375 38.2812 23.4375C39.5735 23.4375 40.625 22.386 40.625 21.0938C40.625 19.8015 39.5735 18.75 38.2812 18.75ZM38.2812 21.875C37.8505 21.875 37.5 21.5245 37.5 21.0938C37.5 20.663 37.8505 20.3125 38.2812 20.3125C38.712 20.3125 39.0625 20.663 39.0625 21.0938C39.0625 21.5245 38.712 21.875 38.2812 21.875Z" fill="white"/>
<path d="M33.5938 36.7188H17.1875C16.7561 36.7188 16.4062 37.0686 16.4062 37.5C16.4062 37.9314 16.7561 38.2812 17.1875 38.2812H33.5938C34.0252 38.2812 34.375 37.9314 34.375 37.5C34.375 37.0686 34.0252 36.7188 33.5938 36.7188Z" fill="white"/>
<path d="M33.5938 40.625H17.1875C16.7561 40.625 16.4062 40.9748 16.4062 41.4062C16.4062 41.8377 16.7561 42.1875 17.1875 42.1875H33.5938C34.0252 42.1875 34.375 41.8377 34.375 41.4062C34.375 40.9748 34.0252 40.625 33.5938 40.625Z" fill="white"/>
<path d="M33.5938 44.5312H17.1875C16.7561 44.5312 16.4062 44.8811 16.4062 45.3125C16.4062 45.7439 16.7561 46.0938 17.1875 46.0938H33.5938C34.0252 46.0938 34.375 45.7439 34.375 45.3125C34.375 44.8811 34.0252 44.5312 33.5938 44.5312Z" fill="white"/>
</svg>
